<svg width="1536" height="754" viewBox="0 0 1536 754" fill="none" xmlns="http://www.w3.org/2000/svg">
<g id="background-image" clip-path="url(#clip0)">
<rect width="1536" height="754" fill="#333333"/>
<g id="wave">
<rect id="Rectangle 1" x="953" y="585" width="585" height="477" fill="#3D3D3D"/>
<rect id="Rectangle 3" x="1256" y="181" width="282" height="404" fill="#3D3D3D"/>
<path id="Vector" fill-rule="evenodd" clip-rule="evenodd" d="M1317.84 -237.047L1280.67 -181.503C1243.5 -125.959 1169.15 -14.8719 1127.1 117.822C1086.2 251.288 1078.73 407.132 996.319 512.818C912.753 617.732 755.389 673.26 639.536 756.567C523.684 839.875 449.342 950.963 412.171 1006.51L375 1062.05L773.965 1329.05L811.136 1273.5C848.307 1217.96 922.648 1106.87 996.99 995.782C1071.33 884.695 1145.67 773.607 1220.02 662.52C1294.36 551.432 1368.7 440.345 1443.04 329.257C1517.38 218.17 1591.73 107.082 1628.9 51.5385L1666.07 -4.00525L1317.84 -237.047Z" fill="#3D3D3D"/>
</g>
<path id="Ride" d="M170.223 95L164.789 87.21C164.561 87.2353 164.219 87.248 163.763 87.248H157.759V95H152.819V68.4H163.763C166.068 68.4 168.07 68.78 169.767 69.54C171.49 70.3 172.807 71.3893 173.719 72.808C174.631 74.2267 175.087 75.9113 175.087 77.862C175.087 79.8633 174.593 81.586 173.605 83.03C172.642 84.474 171.249 85.5507 169.425 86.26L175.543 95H170.223ZM170.109 77.862C170.109 76.1647 169.552 74.86 168.437 73.948C167.322 73.036 165.688 72.58 163.535 72.58H157.759V83.182H163.535C165.688 83.182 167.322 82.726 168.437 81.814C169.552 80.8767 170.109 79.5593 170.109 77.862ZM180.158 74.708H184.908V95H180.158V74.708ZM182.552 71.364C181.691 71.364 180.969 71.098 180.386 70.566C179.803 70.0087 179.512 69.3247 179.512 68.514C179.512 67.7033 179.803 67.032 180.386 66.5C180.969 65.9427 181.691 65.664 182.552 65.664C183.413 65.664 184.135 65.93 184.718 66.462C185.301 66.9687 185.592 67.6147 185.592 68.4C185.592 69.236 185.301 69.9453 184.718 70.528C184.161 71.0853 183.439 71.364 182.552 71.364ZM211.016 66.804V95H206.456V92.378C205.671 93.3407 204.696 94.0627 203.53 94.544C202.39 95.0253 201.124 95.266 199.73 95.266C197.78 95.266 196.019 94.8353 194.448 93.974C192.903 93.1127 191.687 91.8967 190.8 90.326C189.914 88.73 189.47 86.906 189.47 84.854C189.47 82.802 189.914 80.9907 190.8 79.42C191.687 77.8493 192.903 76.6333 194.448 75.772C196.019 74.9107 197.78 74.48 199.73 74.48C201.073 74.48 202.302 74.708 203.416 75.164C204.531 75.62 205.481 76.304 206.266 77.216V66.804H211.016ZM200.3 91.2C201.44 91.2 202.466 90.9467 203.378 90.44C204.29 89.908 205.012 89.1607 205.544 88.198C206.076 87.2353 206.342 86.1207 206.342 84.854C206.342 83.5873 206.076 82.4727 205.544 81.51C205.012 80.5473 204.29 79.8127 203.378 79.306C202.466 78.774 201.44 78.508 200.3 78.508C199.16 78.508 198.134 78.774 197.222 79.306C196.31 79.8127 195.588 80.5473 195.056 81.51C194.524 82.4727 194.258 83.5873 194.258 84.854C194.258 86.1207 194.524 87.2353 195.056 88.198C195.588 89.1607 196.31 89.908 197.222 90.44C198.134 90.9467 199.16 91.2 200.3 91.2ZM236.306 84.968C236.306 85.2973 236.281 85.766 236.23 86.374H220.308C220.587 87.8687 221.309 89.0593 222.474 89.946C223.665 90.8073 225.134 91.238 226.882 91.238C229.112 91.238 230.948 90.5033 232.392 89.034L234.938 91.96C234.026 93.0493 232.874 93.8727 231.48 94.43C230.087 94.9873 228.516 95.266 226.768 95.266C224.539 95.266 222.576 94.8227 220.878 93.936C219.181 93.0493 217.864 91.8207 216.926 90.25C216.014 88.654 215.558 86.8553 215.558 84.854C215.558 82.878 216.002 81.1047 216.888 79.534C217.8 77.938 219.054 76.6967 220.65 75.81C222.246 74.9233 224.045 74.48 226.046 74.48C228.022 74.48 229.783 74.9233 231.328 75.81C232.899 76.6713 234.115 77.9 234.976 79.496C235.863 81.0667 236.306 82.8907 236.306 84.968ZM226.046 78.28C224.526 78.28 223.234 78.736 222.17 79.648C221.132 80.5347 220.498 81.7253 220.27 83.22H231.784C231.582 81.7507 230.961 80.56 229.922 79.648C228.884 78.736 227.592 78.28 226.046 78.28Z" fill="white"/>
<g id="activity">
<path id="Vector_2" d="M129.25 82.5H113.75L102.125 102.375L78.875 62.625L67.25 82.5H51.75" stroke="url(#paint0_linear)" stroke-width="4" stroke-linecap="round" stroke-linejoin="round"/>
</g>
<g id="button" filter="url(#filter0_d)">
<rect id="Rectangle 4" x="1246" y="58" width="173" height="47" rx="10" fill="url(#paint1_linear)"/>
<path id="Wanna Ride" d="M1296.1 75.4L1291.93 88H1289.44L1286.33 78.676L1283.16 88H1280.66L1276.48 75.4H1278.91L1282.04 84.976L1285.3 75.4H1287.46L1290.65 85.03L1293.87 75.4H1296.1ZM1300.74 78.28C1302.16 78.28 1303.24 78.622 1303.98 79.306C1304.74 79.978 1305.12 80.998 1305.12 82.366V88H1302.99V86.83C1302.72 87.25 1302.32 87.574 1301.8 87.802C1301.3 88.018 1300.69 88.126 1299.97 88.126C1299.25 88.126 1298.62 88.006 1298.08 87.766C1297.54 87.514 1297.12 87.172 1296.82 86.74C1296.53 86.296 1296.39 85.798 1296.39 85.246C1296.39 84.382 1296.7 83.692 1297.34 83.176C1297.99 82.648 1299 82.384 1300.38 82.384H1302.87V82.24C1302.87 81.568 1302.66 81.052 1302.25 80.692C1301.86 80.332 1301.26 80.152 1300.47 80.152C1299.93 80.152 1299.4 80.236 1298.87 80.404C1298.35 80.572 1297.92 80.806 1297.56 81.106L1296.67 79.468C1297.18 79.084 1297.78 78.79 1298.49 78.586C1299.2 78.382 1299.95 78.28 1300.74 78.28ZM1300.44 86.488C1301 86.488 1301.5 86.362 1301.93 86.11C1302.37 85.846 1302.69 85.474 1302.87 84.994V83.878H1300.54C1299.25 83.878 1298.6 84.304 1298.6 85.156C1298.6 85.564 1298.76 85.888 1299.09 86.128C1299.41 86.368 1299.86 86.488 1300.44 86.488ZM1313.46 78.28C1314.67 78.28 1315.64 78.634 1316.37 79.342C1317.11 80.05 1317.47 81.1 1317.47 82.492V88H1315.22V82.78C1315.22 81.94 1315.02 81.31 1314.63 80.89C1314.23 80.458 1313.67 80.242 1312.94 80.242C1312.11 80.242 1311.45 80.494 1310.97 80.998C1310.49 81.49 1310.25 82.204 1310.25 83.14V88H1308V78.388H1310.15V79.63C1310.52 79.186 1310.99 78.85 1311.55 78.622C1312.11 78.394 1312.75 78.28 1313.46 78.28ZM1325.78 78.28C1326.99 78.28 1327.96 78.634 1328.7 79.342C1329.43 80.05 1329.79 81.1 1329.79 82.492V88H1327.54V82.78C1327.54 81.94 1327.35 81.31 1326.95 80.89C1326.55 80.458 1325.99 80.242 1325.26 80.242C1324.43 80.242 1323.78 80.494 1323.3 80.998C1322.82 81.49 1322.58 82.204 1322.58 83.14V88H1320.33V78.388H1322.47V79.63C1322.84 79.186 1323.31 78.85 1323.87 78.622C1324.44 78.394 1325.07 78.28 1325.78 78.28ZM1336.32 78.28C1337.74 78.28 1338.82 78.622 1339.56 79.306C1340.32 79.978 1340.69 80.998 1340.69 82.366V88H1338.57V86.83C1338.29 87.25 1337.9 87.574 1337.38 87.802C1336.88 88.018 1336.27 88.126 1335.55 88.126C1334.83 88.126 1334.2 88.006 1333.66 87.766C1333.12 87.514 1332.7 87.172 1332.4 86.74C1332.11 86.296 1331.96 85.798 1331.96 85.246C1331.96 84.382 1332.28 83.692 1332.92 83.176C1333.57 82.648 1334.58 82.384 1335.96 82.384H1338.44V82.24C1338.44 81.568 1338.24 81.052 1337.83 80.692C1337.44 80.332 1336.84 80.152 1336.05 80.152C1335.51 80.152 1334.98 80.236 1334.45 80.404C1333.93 80.572 1333.49 80.806 1333.13 81.106L1332.25 79.468C1332.76 79.084 1333.36 78.79 1334.07 78.586C1334.78 78.382 1335.53 78.28 1336.32 78.28ZM1336.01 86.488C1336.58 86.488 1337.08 86.362 1337.51 86.11C1337.95 85.846 1338.26 85.474 1338.44 84.994V83.878H1336.12C1334.83 83.878 1334.18 84.304 1334.18 85.156C1334.18 85.564 1334.34 85.888 1334.66 86.128C1334.99 86.368 1335.44 86.488 1336.01 86.488ZM1357.02 88L1354.44 84.31C1354.34 84.322 1354.17 84.328 1353.96 84.328H1351.11V88H1348.77V75.4H1353.96C1355.05 75.4 1356 75.58 1356.8 75.94C1357.62 76.3 1358.24 76.816 1358.67 77.488C1359.11 78.16 1359.32 78.958 1359.32 79.882C1359.32 80.83 1359.09 81.646 1358.62 82.33C1358.16 83.014 1357.5 83.524 1356.64 83.86L1359.54 88H1357.02ZM1356.96 79.882C1356.96 79.078 1356.7 78.46 1356.17 78.028C1355.64 77.596 1354.87 77.38 1353.85 77.38H1351.11V82.402H1353.85C1354.87 82.402 1355.64 82.186 1356.17 81.754C1356.7 81.31 1356.96 80.686 1356.96 79.882ZM1361.72 78.388H1363.97V88H1361.72V78.388ZM1362.86 76.804C1362.45 76.804 1362.11 76.678 1361.83 76.426C1361.56 76.162 1361.42 75.838 1361.42 75.454C1361.42 75.07 1361.56 74.752 1361.83 74.5C1362.11 74.236 1362.45 74.104 1362.86 74.104C1363.27 74.104 1363.61 74.23 1363.88 74.482C1364.16 74.722 1364.3 75.028 1364.3 75.4C1364.3 75.796 1364.16 76.132 1363.88 76.408C1363.62 76.672 1363.28 76.804 1362.86 76.804ZM1376.34 74.644V88H1374.18V86.758C1373.81 87.214 1373.35 87.556 1372.79 87.784C1372.25 88.012 1371.65 88.126 1370.99 88.126C1370.07 88.126 1369.24 87.922 1368.49 87.514C1367.76 87.106 1367.18 86.53 1366.76 85.786C1366.34 85.03 1366.13 84.166 1366.13 83.194C1366.13 82.222 1366.34 81.364 1366.76 80.62C1367.18 79.876 1367.76 79.3 1368.49 78.892C1369.24 78.484 1370.07 78.28 1370.99 78.28C1371.63 78.28 1372.21 78.388 1372.74 78.604C1373.27 78.82 1373.72 79.144 1374.09 79.576V74.644H1376.34ZM1371.26 86.2C1371.8 86.2 1372.29 86.08 1372.72 85.84C1373.15 85.588 1373.5 85.234 1373.75 84.778C1374 84.322 1374.13 83.794 1374.13 83.194C1374.13 82.594 1374 82.066 1373.75 81.61C1373.5 81.154 1373.15 80.806 1372.72 80.566C1372.29 80.314 1371.8 80.188 1371.26 80.188C1370.72 80.188 1370.24 80.314 1369.81 80.566C1369.37 80.806 1369.03 81.154 1368.78 81.61C1368.53 82.066 1368.4 82.594 1368.4 83.194C1368.4 83.794 1368.53 84.322 1368.78 84.778C1369.03 85.234 1369.37 85.588 1369.81 85.84C1370.24 86.08 1370.72 86.2 1371.26 86.2ZM1388.32 83.248C1388.32 83.404 1388.31 83.626 1388.28 83.914H1380.74C1380.87 84.622 1381.22 85.186 1381.77 85.606C1382.33 86.014 1383.03 86.218 1383.86 86.218C1384.91 86.218 1385.78 85.87 1386.47 85.174L1387.67 86.56C1387.24 87.076 1386.69 87.466 1386.03 87.73C1385.37 87.994 1384.63 88.126 1383.8 88.126C1382.75 88.126 1381.82 87.916 1381.01 87.496C1380.21 87.076 1379.58 86.494 1379.14 85.75C1378.71 84.994 1378.49 84.142 1378.49 83.194C1378.49 82.258 1378.7 81.418 1379.12 80.674C1379.55 79.918 1380.15 79.33 1380.9 78.91C1381.66 78.49 1382.51 78.28 1383.46 78.28C1384.4 78.28 1385.23 78.49 1385.96 78.91C1386.71 79.318 1387.28 79.9 1387.69 80.656C1388.11 81.4 1388.32 82.264 1388.32 83.248ZM1383.46 80.08C1382.74 80.08 1382.13 80.296 1381.62 80.728C1381.13 81.148 1380.83 81.712 1380.72 82.42H1386.18C1386.08 81.724 1385.79 81.16 1385.3 80.728C1384.8 80.296 1384.19 80.08 1383.46 80.08Z" fill="white"/>
</g>
<path id="Do you wanna ride!" d="M141.277 252.6H157.189C161.071 252.6 164.521 253.363 167.537 254.888C170.553 256.379 172.893 258.511 174.557 261.284C176.221 264.023 177.053 267.195 177.053 270.8C177.053 274.405 176.221 277.595 174.557 280.368C172.893 283.107 170.553 285.239 167.537 286.764C164.521 288.255 161.071 289 157.189 289H141.277V252.6ZM156.877 283.28C159.546 283.28 161.886 282.777 163.897 281.772C165.942 280.732 167.502 279.276 168.577 277.404C169.686 275.497 170.241 273.296 170.241 270.8C170.241 268.304 169.686 266.12 168.577 264.248C167.502 262.341 165.942 260.885 163.897 259.88C161.886 258.84 159.546 258.32 156.877 258.32H148.037V283.28H156.877ZM196.094 289.364C193.286 289.364 190.755 288.757 188.502 287.544C186.248 286.331 184.48 284.649 183.198 282.5C181.95 280.316 181.326 277.855 181.326 275.116C181.326 272.377 181.95 269.933 183.198 267.784C184.48 265.635 186.248 263.953 188.502 262.74C190.755 261.527 193.286 260.92 196.094 260.92C198.936 260.92 201.484 261.527 203.738 262.74C205.991 263.953 207.742 265.635 208.99 267.784C210.272 269.933 210.914 272.377 210.914 275.116C210.914 277.855 210.272 280.316 208.99 282.5C207.742 284.649 205.991 286.331 203.738 287.544C201.484 288.757 198.936 289.364 196.094 289.364ZM196.094 283.8C198.486 283.8 200.462 283.003 202.022 281.408C203.582 279.813 204.362 277.716 204.362 275.116C204.362 272.516 203.582 270.419 202.022 268.824C200.462 267.229 198.486 266.432 196.094 266.432C193.702 266.432 191.726 267.229 190.166 268.824C188.64 270.419 187.878 272.516 187.878 275.116C187.878 277.716 188.64 279.813 190.166 281.408C191.726 283.003 193.702 283.8 196.094 283.8ZM257.5 261.232L244.5 291.236C243.287 294.252 241.814 296.367 240.08 297.58C238.347 298.828 236.25 299.452 233.788 299.452C232.402 299.452 231.032 299.227 229.68 298.776C228.328 298.325 227.219 297.701 226.352 296.904L228.952 292.12C229.576 292.709 230.304 293.177 231.136 293.524C232.003 293.871 232.87 294.044 233.736 294.044C234.88 294.044 235.816 293.749 236.544 293.16C237.307 292.571 238 291.583 238.624 290.196L239.092 289.104L226.976 261.232H233.736L242.472 281.772L251.26 261.232H257.5ZM273.281 289.364C270.473 289.364 267.942 288.757 265.689 287.544C263.436 286.331 261.668 284.649 260.385 282.5C259.137 280.316 258.513 277.855 258.513 275.116C258.513 272.377 259.137 269.933 260.385 267.784C261.668 265.635 263.436 263.953 265.689 262.74C267.942 261.527 270.473 260.92 273.281 260.92C276.124 260.92 278.672 261.527 280.925 262.74C283.178 263.953 284.929 265.635 286.177 267.784C287.46 269.933 288.101 272.377 288.101 275.116C288.101 277.855 287.46 280.316 286.177 282.5C284.929 284.649 283.178 286.331 280.925 287.544C278.672 288.757 276.124 289.364 273.281 289.364ZM273.281 283.8C275.673 283.8 277.649 283.003 279.209 281.408C280.769 279.813 281.549 277.716 281.549 275.116C281.549 272.516 280.769 270.419 279.209 268.824C277.649 267.229 275.673 266.432 273.281 266.432C270.889 266.432 268.913 267.229 267.353 268.824C265.828 270.419 265.065 272.516 265.065 275.116C265.065 277.716 265.828 279.813 267.353 281.408C268.913 283.003 270.889 283.8 273.281 283.8ZM321.201 261.232V289H315.013V285.464C313.973 286.712 312.673 287.683 311.113 288.376C309.553 289.035 307.871 289.364 306.069 289.364C302.359 289.364 299.43 288.341 297.281 286.296C295.166 284.216 294.109 281.148 294.109 277.092V261.232H300.609V276.208C300.609 278.704 301.163 280.576 302.273 281.824C303.417 283.037 305.029 283.644 307.109 283.644C309.431 283.644 311.269 282.933 312.621 281.512C314.007 280.056 314.701 277.976 314.701 275.272V261.232H321.201ZM387.398 261.232L377.154 289H370.914L363.738 269.864L356.458 289H350.218L340.026 261.232H346.162L353.494 281.72L361.138 261.232H366.598L374.086 281.824L381.626 261.232H387.398ZM401.612 260.92C405.703 260.92 408.823 261.908 410.972 263.884C413.156 265.825 414.248 268.772 414.248 272.724V289H408.112V285.62C407.315 286.833 406.171 287.769 404.68 288.428C403.224 289.052 401.456 289.364 399.376 289.364C397.296 289.364 395.476 289.017 393.916 288.324C392.356 287.596 391.143 286.608 390.276 285.36C389.444 284.077 389.028 282.639 389.028 281.044C389.028 278.548 389.947 276.555 391.784 275.064C393.656 273.539 396.586 272.776 400.572 272.776H407.748V272.36C407.748 270.419 407.159 268.928 405.98 267.888C404.836 266.848 403.12 266.328 400.832 266.328C399.272 266.328 397.73 266.571 396.204 267.056C394.714 267.541 393.448 268.217 392.408 269.084L389.86 264.352C391.316 263.243 393.067 262.393 395.112 261.804C397.158 261.215 399.324 260.92 401.612 260.92ZM400.728 284.632C402.358 284.632 403.796 284.268 405.044 283.54C406.327 282.777 407.228 281.703 407.748 280.316V277.092H401.04C397.296 277.092 395.424 278.323 395.424 280.784C395.424 281.963 395.892 282.899 396.828 283.592C397.764 284.285 399.064 284.632 400.728 284.632ZM438.346 260.92C441.848 260.92 444.656 261.943 446.77 263.988C448.885 266.033 449.942 269.067 449.942 273.088V289H443.442V273.92C443.442 271.493 442.87 269.673 441.726 268.46C440.582 267.212 438.953 266.588 436.838 266.588C434.446 266.588 432.557 267.316 431.17 268.772C429.784 270.193 429.09 272.256 429.09 274.96V289H422.59V261.232H428.778V264.82C429.853 263.537 431.205 262.567 432.834 261.908C434.464 261.249 436.301 260.92 438.346 260.92ZM473.944 260.92C477.445 260.92 480.253 261.943 482.368 263.988C484.482 266.033 485.54 269.067 485.54 273.088V289H479.04V273.92C479.04 271.493 478.468 269.673 477.324 268.46C476.18 267.212 474.55 266.588 472.436 266.588C470.044 266.588 468.154 267.316 466.768 268.772C465.381 270.193 464.688 272.256 464.688 274.96V289H458.188V261.232H464.376V264.82C465.45 263.537 466.802 262.567 468.432 261.908C470.061 261.249 471.898 260.92 473.944 260.92ZM504.393 260.92C508.484 260.92 511.604 261.908 513.753 263.884C515.937 265.825 517.029 268.772 517.029 272.724V289H510.893V285.62C510.096 286.833 508.952 287.769 507.461 288.428C506.005 289.052 504.237 289.364 502.157 289.364C500.077 289.364 498.257 289.017 496.697 288.324C495.137 287.596 493.924 286.608 493.057 285.36C492.225 284.077 491.809 282.639 491.809 281.044C491.809 278.548 492.728 276.555 494.565 275.064C496.437 273.539 499.367 272.776 503.353 272.776H510.529V272.36C510.529 270.419 509.94 268.928 508.761 267.888C507.617 266.848 505.901 266.328 503.613 266.328C502.053 266.328 500.511 266.571 498.985 267.056C497.495 267.541 496.229 268.217 495.189 269.084L492.641 264.352C494.097 263.243 495.848 262.393 497.893 261.804C499.939 261.215 502.105 260.92 504.393 260.92ZM503.509 284.632C505.139 284.632 506.577 284.268 507.825 283.54C509.108 282.777 510.009 281.703 510.529 280.316V277.092H503.821C500.077 277.092 498.205 278.323 498.205 280.784C498.205 281.963 498.673 282.899 499.609 283.592C500.545 284.285 501.845 284.632 503.509 284.632ZM545.931 265.288C547.803 262.376 551.096 260.92 555.811 260.92V267.108C555.256 267.004 554.753 266.952 554.303 266.952C551.772 266.952 549.796 267.697 548.375 269.188C546.953 270.644 546.243 272.759 546.243 275.532V289H539.743V261.232H545.931V265.288ZM561.325 261.232H567.825V289H561.325V261.232ZM564.601 256.656C563.422 256.656 562.434 256.292 561.637 255.564C560.839 254.801 560.441 253.865 560.441 252.756C560.441 251.647 560.839 250.728 561.637 250C562.434 249.237 563.422 248.856 564.601 248.856C565.779 248.856 566.767 249.22 567.565 249.948C568.362 250.641 568.761 251.525 568.761 252.6C568.761 253.744 568.362 254.715 567.565 255.512C566.802 256.275 565.814 256.656 564.601 256.656ZM603.552 250.416V289H597.312V285.412C596.237 286.729 594.902 287.717 593.308 288.376C591.748 289.035 590.014 289.364 588.108 289.364C585.438 289.364 583.029 288.775 580.88 287.596C578.765 286.417 577.101 284.753 575.888 282.604C574.674 280.42 574.068 277.924 574.068 275.116C574.068 272.308 574.674 269.829 575.888 267.68C577.101 265.531 578.765 263.867 580.88 262.688C583.029 261.509 585.438 260.92 588.108 260.92C589.945 260.92 591.626 261.232 593.152 261.856C594.677 262.48 595.977 263.416 597.052 264.664V250.416H603.552ZM588.888 283.8C590.448 283.8 591.852 283.453 593.1 282.76C594.348 282.032 595.336 281.009 596.064 279.692C596.792 278.375 597.156 276.849 597.156 275.116C597.156 273.383 596.792 271.857 596.064 270.54C595.336 269.223 594.348 268.217 593.1 267.524C591.852 266.796 590.448 266.432 588.888 266.432C587.328 266.432 585.924 266.796 584.676 267.524C583.428 268.217 582.44 269.223 581.712 270.54C580.984 271.857 580.62 273.383 580.62 275.116C580.62 276.849 580.984 278.375 581.712 279.692C582.44 281.009 583.428 282.032 584.676 282.76C585.924 283.453 587.328 283.8 588.888 283.8ZM638.159 275.272C638.159 275.723 638.124 276.364 638.055 277.196H616.267C616.648 279.241 617.636 280.871 619.231 282.084C620.86 283.263 622.871 283.852 625.263 283.852C628.314 283.852 630.827 282.847 632.803 280.836L636.287 284.84C635.039 286.331 633.462 287.457 631.555 288.22C629.648 288.983 627.499 289.364 625.107 289.364C622.056 289.364 619.37 288.757 617.047 287.544C614.724 286.331 612.922 284.649 611.639 282.5C610.391 280.316 609.767 277.855 609.767 275.116C609.767 272.412 610.374 269.985 611.587 267.836C612.835 265.652 614.551 263.953 616.735 262.74C618.919 261.527 621.38 260.92 624.119 260.92C626.823 260.92 629.232 261.527 631.347 262.74C633.496 263.919 635.16 265.6 636.339 267.784C637.552 269.933 638.159 272.429 638.159 275.272ZM624.119 266.12C622.039 266.12 620.271 266.744 618.815 267.992C617.394 269.205 616.527 270.835 616.215 272.88H631.971C631.694 270.869 630.844 269.24 629.423 267.992C628.002 266.744 626.234 266.12 624.119 266.12ZM643.571 252.6H651.267L649.967 276.936H644.819L643.571 252.6ZM647.419 289.364C646.205 289.364 645.2 288.983 644.403 288.22C643.605 287.423 643.207 286.452 643.207 285.308C643.207 284.164 643.605 283.211 644.403 282.448C645.2 281.685 646.205 281.304 647.419 281.304C648.597 281.304 649.568 281.685 650.331 282.448C651.128 283.211 651.527 284.164 651.527 285.308C651.527 286.452 651.128 287.423 650.331 288.22C649.568 288.983 648.597 289.364 647.419 289.364Z" fill="white"/>
<g id="Hop on your bicycle and get ready to go!">
<path d="M186.015 345.6V368H182.815V358.016H169.951V368H166.751V345.6H169.951V355.232H182.815V345.6H186.015ZM199.535 368.192C197.85 368.192 196.335 367.819 194.991 367.072C193.647 366.325 192.591 365.301 191.823 364C191.077 362.677 190.703 361.184 190.703 359.52C190.703 357.856 191.077 356.373 191.823 355.072C192.591 353.749 193.647 352.725 194.991 352C196.335 351.253 197.85 350.88 199.535 350.88C201.221 350.88 202.725 351.253 204.047 352C205.391 352.725 206.437 353.749 207.183 355.072C207.951 356.373 208.335 357.856 208.335 359.52C208.335 361.184 207.951 362.677 207.183 364C206.437 365.301 205.391 366.325 204.047 367.072C202.725 367.819 201.221 368.192 199.535 368.192ZM199.535 365.504C200.623 365.504 201.594 365.259 202.447 364.768C203.322 364.256 204.005 363.552 204.495 362.656C204.986 361.739 205.231 360.693 205.231 359.52C205.231 358.347 204.986 357.312 204.495 356.416C204.005 355.499 203.322 354.795 202.447 354.304C201.594 353.813 200.623 353.568 199.535 353.568C198.447 353.568 197.466 353.813 196.591 354.304C195.738 354.795 195.055 355.499 194.543 356.416C194.053 357.312 193.807 358.347 193.807 359.52C193.807 360.693 194.053 361.739 194.543 362.656C195.055 363.552 195.738 364.256 196.591 364.768C197.466 365.259 198.447 365.504 199.535 365.504ZM221.576 350.88C223.219 350.88 224.691 351.243 225.992 351.968C227.293 352.693 228.307 353.707 229.032 355.008C229.779 356.309 230.152 357.813 230.152 359.52C230.152 361.227 229.779 362.741 229.032 364.064C228.307 365.365 227.293 366.379 225.992 367.104C224.691 367.829 223.219 368.192 221.576 368.192C220.36 368.192 219.24 367.957 218.216 367.488C217.213 367.019 216.36 366.336 215.656 365.44V374.208H212.584V351.04H215.528V353.728C216.211 352.789 217.075 352.085 218.12 351.616C219.165 351.125 220.317 350.88 221.576 350.88ZM221.32 365.504C222.408 365.504 223.379 365.259 224.232 364.768C225.107 364.256 225.789 363.552 226.28 362.656C226.792 361.739 227.048 360.693 227.048 359.52C227.048 358.347 226.792 357.312 226.28 356.416C225.789 355.499 225.107 354.795 224.232 354.304C223.379 353.813 222.408 353.568 221.32 353.568C220.253 353.568 219.283 353.824 218.408 354.336C217.555 354.827 216.872 355.52 216.36 356.416C215.869 357.312 215.624 358.347 215.624 359.52C215.624 360.693 215.869 361.739 216.36 362.656C216.851 363.552 217.533 364.256 218.408 364.768C219.283 365.259 220.253 365.504 221.32 365.504ZM250.254 368.192C248.569 368.192 247.054 367.819 245.71 367.072C244.366 366.325 243.31 365.301 242.542 364C241.795 362.677 241.422 361.184 241.422 359.52C241.422 357.856 241.795 356.373 242.542 355.072C243.31 353.749 244.366 352.725 245.71 352C247.054 351.253 248.569 350.88 250.254 350.88C251.939 350.88 253.443 351.253 254.766 352C256.11 352.725 257.155 353.749 257.902 355.072C258.67 356.373 259.054 357.856 259.054 359.52C259.054 361.184 258.67 362.677 257.902 364C257.155 365.301 256.11 366.325 254.766 367.072C253.443 367.819 251.939 368.192 250.254 368.192ZM250.254 365.504C251.342 365.504 252.313 365.259 253.166 364.768C254.041 364.256 254.723 363.552 255.214 362.656C255.705 361.739 255.95 360.693 255.95 359.52C255.95 358.347 255.705 357.312 255.214 356.416C254.723 355.499 254.041 354.795 253.166 354.304C252.313 353.813 251.342 353.568 250.254 353.568C249.166 353.568 248.185 353.813 247.31 354.304C246.457 354.795 245.774 355.499 245.262 356.416C244.771 357.312 244.526 358.347 244.526 359.52C244.526 360.693 244.771 361.739 245.262 362.656C245.774 363.552 246.457 364.256 247.31 364.768C248.185 365.259 249.166 365.504 250.254 365.504ZM272.359 350.88C274.513 350.88 276.22 351.509 277.479 352.768C278.759 354.005 279.399 355.829 279.399 358.24V368H276.327V358.592C276.327 356.949 275.932 355.712 275.143 354.88C274.353 354.048 273.223 353.632 271.751 353.632C270.087 353.632 268.775 354.123 267.815 355.104C266.855 356.064 266.375 357.451 266.375 359.264V368H263.303V351.04H266.247V353.6C266.865 352.725 267.697 352.053 268.743 351.584C269.809 351.115 271.015 350.88 272.359 350.88ZM308.686 351.04L300.462 369.696C299.736 371.424 298.883 372.64 297.902 373.344C296.942 374.048 295.779 374.4 294.414 374.4C293.582 374.4 292.771 374.261 291.982 373.984C291.214 373.728 290.574 373.344 290.062 372.832L291.374 370.528C292.248 371.36 293.262 371.776 294.414 371.776C295.16 371.776 295.779 371.573 296.27 371.168C296.782 370.784 297.24 370.112 297.646 369.152L298.19 367.968L290.702 351.04H293.902L299.822 364.608L305.678 351.04H308.686ZM318.348 368.192C316.663 368.192 315.148 367.819 313.804 367.072C312.46 366.325 311.404 365.301 310.636 364C309.889 362.677 309.516 361.184 309.516 359.52C309.516 357.856 309.889 356.373 310.636 355.072C311.404 353.749 312.46 352.725 313.804 352C315.148 351.253 316.663 350.88 318.348 350.88C320.033 350.88 321.537 351.253 322.86 352C324.204 352.725 325.249 353.749 325.996 355.072C326.764 356.373 327.148 357.856 327.148 359.52C327.148 361.184 326.764 362.677 325.996 364C325.249 365.301 324.204 366.325 322.86 367.072C321.537 367.819 320.033 368.192 318.348 368.192ZM318.348 365.504C319.436 365.504 320.407 365.259 321.26 364.768C322.135 364.256 322.817 363.552 323.308 362.656C323.799 361.739 324.044 360.693 324.044 359.52C324.044 358.347 323.799 357.312 323.308 356.416C322.817 355.499 322.135 354.795 321.26 354.304C320.407 353.813 319.436 353.568 318.348 353.568C317.26 353.568 316.279 353.813 315.404 354.304C314.551 354.795 313.868 355.499 313.356 356.416C312.865 357.312 312.62 358.347 312.62 359.52C312.62 360.693 312.865 361.739 313.356 362.656C313.868 363.552 314.551 364.256 315.404 364.768C316.279 365.259 317.26 365.504 318.348 365.504ZM347.204 351.04V368H344.292V365.44C343.674 366.315 342.852 366.997 341.828 367.488C340.826 367.957 339.727 368.192 338.532 368.192C336.271 368.192 334.49 367.573 333.188 366.336C331.887 365.077 331.236 363.232 331.236 360.8V351.04H334.308V360.448C334.308 362.091 334.703 363.339 335.492 364.192C336.282 365.024 337.412 365.44 338.884 365.44C340.506 365.44 341.786 364.949 342.724 363.968C343.663 362.987 344.132 361.6 344.132 359.808V351.04H347.204ZM355.997 353.888C356.53 352.907 357.319 352.16 358.365 351.648C359.41 351.136 360.679 350.88 362.173 350.88V353.856C362.002 353.835 361.767 353.824 361.469 353.824C359.805 353.824 358.493 354.325 357.533 355.328C356.594 356.309 356.125 357.717 356.125 359.552V368H353.053V351.04H355.997V353.888ZM502.354 350.88C504.7 350.88 506.492 351.456 507.73 352.608C508.988 353.76 509.618 355.477 509.618 357.76V368H506.706V365.76C506.194 366.549 505.458 367.157 504.498 367.584C503.559 367.989 502.439 368.192 501.138 368.192C499.239 368.192 497.714 367.733 496.562 366.816C495.431 365.899 494.866 364.693 494.866 363.2C494.866 361.707 495.41 360.512 496.498 359.616C497.586 358.699 499.314 358.24 501.682 358.24H506.546V357.632C506.546 356.309 506.162 355.296 505.394 354.592C504.626 353.888 503.495 353.536 502.002 353.536C500.999 353.536 500.018 353.707 499.058 354.048C498.098 354.368 497.287 354.805 496.626 355.36L495.346 353.056C496.22 352.352 497.266 351.819 498.482 351.456C499.698 351.072 500.988 350.88 502.354 350.88ZM501.65 365.824C502.823 365.824 503.836 365.568 504.69 365.056C505.543 364.523 506.162 363.776 506.546 362.816V360.448H501.81C499.207 360.448 497.906 361.323 497.906 363.072C497.906 363.925 498.236 364.597 498.898 365.088C499.559 365.579 500.476 365.824 501.65 365.824ZM524.359 350.88C526.513 350.88 528.22 351.509 529.479 352.768C530.759 354.005 531.399 355.829 531.399 358.24V368H528.327V358.592C528.327 356.949 527.932 355.712 527.143 354.88C526.353 354.048 525.223 353.632 523.751 353.632C522.087 353.632 520.775 354.123 519.815 355.104C518.855 356.064 518.375 357.451 518.375 359.264V368H515.303V351.04H518.247V353.6C518.865 352.725 519.697 352.053 520.743 351.584C521.809 351.115 523.015 350.88 524.359 350.88ZM553.178 344.256V368H550.234V365.312C549.551 366.251 548.687 366.965 547.642 367.456C546.596 367.947 545.444 368.192 544.186 368.192C542.543 368.192 541.071 367.829 539.77 367.104C538.468 366.379 537.444 365.365 536.698 364.064C535.972 362.741 535.61 361.227 535.61 359.52C535.61 357.813 535.972 356.309 536.698 355.008C537.444 353.707 538.468 352.693 539.77 351.968C541.071 351.243 542.543 350.88 544.186 350.88C545.402 350.88 546.522 351.115 547.546 351.584C548.57 352.032 549.423 352.704 550.106 353.6V344.256H553.178ZM544.442 365.504C545.508 365.504 546.479 365.259 547.354 364.768C548.228 364.256 548.911 363.552 549.402 362.656C549.892 361.739 550.138 360.693 550.138 359.52C550.138 358.347 549.892 357.312 549.402 356.416C548.911 355.499 548.228 354.795 547.354 354.304C546.479 353.813 545.508 353.568 544.442 353.568C543.354 353.568 542.372 353.813 541.498 354.304C540.644 354.795 539.962 355.499 539.45 356.416C538.959 357.312 538.714 358.347 538.714 359.52C538.714 360.693 538.959 361.739 539.45 362.656C539.962 363.552 540.644 364.256 541.498 364.768C542.372 365.259 543.354 365.504 544.442 365.504ZM583.808 351.04V365.696C583.808 368.661 583.072 370.848 581.6 372.256C580.128 373.685 577.931 374.4 575.008 374.4C573.408 374.4 571.883 374.176 570.432 373.728C568.981 373.301 567.808 372.683 566.912 371.872L568.384 369.504C569.173 370.187 570.144 370.72 571.296 371.104C572.469 371.509 573.675 371.712 574.912 371.712C576.896 371.712 578.357 371.243 579.296 370.304C580.256 369.365 580.736 367.936 580.736 366.016V364.672C580.011 365.547 579.115 366.208 578.048 366.656C577.003 367.083 575.861 367.296 574.624 367.296C573.003 367.296 571.531 366.955 570.208 366.272C568.907 365.568 567.883 364.597 567.136 363.36C566.389 362.101 566.016 360.672 566.016 359.072C566.016 357.472 566.389 356.053 567.136 354.816C567.883 353.557 568.907 352.587 570.208 351.904C571.531 351.221 573.003 350.88 574.624 350.88C575.904 350.88 577.088 351.115 578.176 351.584C579.285 352.053 580.192 352.747 580.896 353.664V351.04H583.808ZM574.976 364.608C576.085 364.608 577.077 364.373 577.952 363.904C578.848 363.435 579.541 362.784 580.032 361.952C580.544 361.099 580.8 360.139 580.8 359.072C580.8 357.429 580.256 356.107 579.168 355.104C578.08 354.08 576.683 353.568 574.976 353.568C573.248 353.568 571.84 354.08 570.752 355.104C569.664 356.107 569.12 357.429 569.12 359.072C569.12 360.139 569.365 361.099 569.856 361.952C570.368 362.784 571.061 363.435 571.936 363.904C572.832 364.373 573.845 364.608 574.976 364.608ZM605.006 359.616C605.006 359.851 604.984 360.16 604.942 360.544H591.182C591.374 362.037 592.024 363.243 593.134 364.16C594.264 365.056 595.662 365.504 597.326 365.504C599.352 365.504 600.984 364.821 602.222 363.456L603.918 365.44C603.15 366.336 602.19 367.019 601.038 367.488C599.907 367.957 598.638 368.192 597.23 368.192C595.438 368.192 593.848 367.829 592.462 367.104C591.075 366.357 589.998 365.323 589.23 364C588.483 362.677 588.11 361.184 588.11 359.52C588.11 357.877 588.472 356.395 589.198 355.072C589.944 353.749 590.958 352.725 592.238 352C593.539 351.253 595 350.88 596.622 350.88C598.243 350.88 599.683 351.253 600.942 352C602.222 352.725 603.214 353.749 603.918 355.072C604.643 356.395 605.006 357.909 605.006 359.616ZM596.622 353.472C595.15 353.472 593.912 353.92 592.91 354.816C591.928 355.712 591.352 356.885 591.182 358.336H602.062C601.891 356.907 601.304 355.744 600.302 354.848C599.32 353.931 598.094 353.472 596.622 353.472ZM618.807 367.008C618.359 367.392 617.805 367.691 617.143 367.904C616.482 368.096 615.799 368.192 615.095 368.192C613.389 368.192 612.066 367.733 611.127 366.816C610.189 365.899 609.719 364.587 609.719 362.88V353.568H606.839V351.04H609.719V347.328H612.791V351.04H617.655V353.568H612.791V362.752C612.791 363.669 613.015 364.373 613.463 364.864C613.933 365.355 614.594 365.6 615.447 365.6C616.386 365.6 617.186 365.333 617.847 364.8L618.807 367.008ZM301.387 392.888C301.921 391.907 302.71 391.16 303.755 390.648C304.801 390.136 306.07 389.88 307.563 389.88V392.856C307.393 392.835 307.158 392.824 306.859 392.824C305.195 392.824 303.883 393.325 302.923 394.328C301.985 395.309 301.515 396.717 301.515 398.552V407H298.443V390.04H301.387V392.888ZM326.521 398.616C326.521 398.851 326.5 399.16 326.457 399.544H312.697C312.889 401.037 313.54 402.243 314.649 403.16C315.78 404.056 317.177 404.504 318.841 404.504C320.868 404.504 322.5 403.821 323.737 402.456L325.433 404.44C324.665 405.336 323.705 406.019 322.553 406.488C321.423 406.957 320.153 407.192 318.745 407.192C316.953 407.192 315.364 406.829 313.977 406.104C312.591 405.357 311.513 404.323 310.745 403C309.999 401.677 309.625 400.184 309.625 398.52C309.625 396.877 309.988 395.395 310.713 394.072C311.46 392.749 312.473 391.725 313.753 391C315.055 390.253 316.516 389.88 318.137 389.88C319.759 389.88 321.199 390.253 322.457 391C323.737 391.725 324.729 392.749 325.433 394.072C326.159 395.395 326.521 396.909 326.521 398.616ZM318.137 392.472C316.665 392.472 315.428 392.92 314.425 393.816C313.444 394.712 312.868 395.885 312.697 397.336H323.577C323.407 395.907 322.82 394.744 321.817 393.848C320.836 392.931 319.609 392.472 318.137 392.472ZM336.494 389.88C338.841 389.88 340.633 390.456 341.87 391.608C343.129 392.76 343.758 394.477 343.758 396.76V407H340.846V404.76C340.334 405.549 339.598 406.157 338.638 406.584C337.7 406.989 336.58 407.192 335.278 407.192C333.38 407.192 331.854 406.733 330.702 405.816C329.572 404.899 329.006 403.693 329.006 402.2C329.006 400.707 329.55 399.512 330.638 398.616C331.726 397.699 333.454 397.24 335.822 397.24H340.686V396.632C340.686 395.309 340.302 394.296 339.534 393.592C338.766 392.888 337.636 392.536 336.142 392.536C335.14 392.536 334.158 392.707 333.198 393.048C332.238 393.368 331.428 393.805 330.766 394.36L329.486 392.056C330.361 391.352 331.406 390.819 332.622 390.456C333.838 390.072 335.129 389.88 336.494 389.88ZM335.79 404.824C336.964 404.824 337.977 404.568 338.83 404.056C339.684 403.523 340.302 402.776 340.686 401.816V399.448H335.95C333.348 399.448 332.046 400.323 332.046 402.072C332.046 402.925 332.377 403.597 333.038 404.088C333.7 404.579 334.617 404.824 335.79 404.824ZM365.537 383.256V407H362.593V404.312C361.91 405.251 361.046 405.965 360.001 406.456C358.956 406.947 357.804 407.192 356.545 407.192C354.902 407.192 353.43 406.829 352.129 406.104C350.828 405.379 349.804 404.365 349.057 403.064C348.332 401.741 347.969 400.227 347.969 398.52C347.969 396.813 348.332 395.309 349.057 394.008C349.804 392.707 350.828 391.693 352.129 390.968C353.43 390.243 354.902 389.88 356.545 389.88C357.761 389.88 358.881 390.115 359.905 390.584C360.929 391.032 361.782 391.704 362.465 392.6V383.256H365.537ZM356.801 404.504C357.868 404.504 358.838 404.259 359.713 403.768C360.588 403.256 361.27 402.552 361.761 401.656C362.252 400.739 362.497 399.693 362.497 398.52C362.497 397.347 362.252 396.312 361.761 395.416C361.27 394.499 360.588 393.795 359.713 393.304C358.838 392.813 357.868 392.568 356.801 392.568C355.713 392.568 354.732 392.813 353.857 393.304C353.004 393.795 352.321 394.499 351.809 395.416C351.318 396.312 351.073 397.347 351.073 398.52C351.073 399.693 351.318 400.739 351.809 401.656C352.321 402.552 353.004 403.256 353.857 403.768C354.732 404.259 355.713 404.504 356.801 404.504ZM386.358 390.04L378.134 408.696C377.408 410.424 376.555 411.64 375.574 412.344C374.614 413.048 373.451 413.4 372.086 413.4C371.254 413.4 370.443 413.261 369.654 412.984C368.886 412.728 368.245 412.344 367.733 411.832L369.046 409.528C369.92 410.36 370.934 410.776 372.086 410.776C372.832 410.776 373.451 410.573 373.942 410.168C374.454 409.784 374.912 409.112 375.318 408.152L375.862 406.968L368.373 390.04H371.574L377.494 403.608L383.35 390.04H386.358ZM407.354 406.008C406.906 406.392 406.352 406.691 405.69 406.904C405.029 407.096 404.346 407.192 403.642 407.192C401.936 407.192 400.613 406.733 399.674 405.816C398.736 404.899 398.266 403.587 398.266 401.88V392.568H395.386V390.04H398.266V386.328H401.338V390.04H406.202V392.568H401.338V401.752C401.338 402.669 401.562 403.373 402.01 403.864C402.48 404.355 403.141 404.6 403.994 404.6C404.933 404.6 405.733 404.333 406.394 403.8L407.354 406.008ZM417.77 407.192C416.084 407.192 414.57 406.819 413.226 406.072C411.882 405.325 410.826 404.301 410.058 403C409.311 401.677 408.938 400.184 408.938 398.52C408.938 396.856 409.311 395.373 410.058 394.072C410.826 392.749 411.882 391.725 413.226 391C414.57 390.253 416.084 389.88 417.77 389.88C419.455 389.88 420.959 390.253 422.282 391C423.626 391.725 424.671 392.749 425.418 394.072C426.186 395.373 426.57 396.856 426.57 398.52C426.57 400.184 426.186 401.677 425.418 403C424.671 404.301 423.626 405.325 422.282 406.072C420.959 406.819 419.455 407.192 417.77 407.192ZM417.77 404.504C418.858 404.504 419.828 404.259 420.682 403.768C421.556 403.256 422.239 402.552 422.73 401.656C423.22 400.739 423.466 399.693 423.466 398.52C423.466 397.347 423.22 396.312 422.73 395.416C422.239 394.499 421.556 393.795 420.682 393.304C419.828 392.813 418.858 392.568 417.77 392.568C416.682 392.568 415.7 392.813 414.826 393.304C413.972 393.795 413.29 394.499 412.778 395.416C412.287 396.312 412.042 397.347 412.042 398.52C412.042 399.693 412.287 400.739 412.778 401.656C413.29 402.552 413.972 403.256 414.826 403.768C415.7 404.259 416.682 404.504 417.77 404.504ZM455.636 390.04V404.696C455.636 407.661 454.9 409.848 453.428 411.256C451.956 412.685 449.759 413.4 446.836 413.4C445.236 413.4 443.711 413.176 442.26 412.728C440.809 412.301 439.636 411.683 438.74 410.872L440.212 408.504C441.001 409.187 441.972 409.72 443.124 410.104C444.297 410.509 445.503 410.712 446.74 410.712C448.724 410.712 450.185 410.243 451.124 409.304C452.084 408.365 452.564 406.936 452.564 405.016V403.672C451.839 404.547 450.943 405.208 449.876 405.656C448.831 406.083 447.689 406.296 446.452 406.296C444.831 406.296 443.359 405.955 442.036 405.272C440.735 404.568 439.711 403.597 438.964 402.36C438.217 401.101 437.844 399.672 437.844 398.072C437.844 396.472 438.217 395.053 438.964 393.816C439.711 392.557 440.735 391.587 442.036 390.904C443.359 390.221 444.831 389.88 446.452 389.88C447.732 389.88 448.916 390.115 450.004 390.584C451.113 391.053 452.02 391.747 452.724 392.664V390.04H455.636ZM446.804 403.608C447.913 403.608 448.905 403.373 449.78 402.904C450.676 402.435 451.369 401.784 451.86 400.952C452.372 400.099 452.628 399.139 452.628 398.072C452.628 396.429 452.084 395.107 450.996 394.104C449.908 393.08 448.511 392.568 446.804 392.568C445.076 392.568 443.668 393.08 442.58 394.104C441.492 395.107 440.948 396.429 440.948 398.072C440.948 399.139 441.193 400.099 441.684 400.952C442.196 401.784 442.889 402.435 443.764 402.904C444.66 403.373 445.673 403.608 446.804 403.608ZM468.77 407.192C467.084 407.192 465.57 406.819 464.226 406.072C462.882 405.325 461.826 404.301 461.058 403C460.311 401.677 459.938 400.184 459.938 398.52C459.938 396.856 460.311 395.373 461.058 394.072C461.826 392.749 462.882 391.725 464.226 391C465.57 390.253 467.084 389.88 468.77 389.88C470.455 389.88 471.959 390.253 473.282 391C474.626 391.725 475.671 392.749 476.418 394.072C477.186 395.373 477.57 396.856 477.57 398.52C477.57 400.184 477.186 401.677 476.418 403C475.671 404.301 474.626 405.325 473.282 406.072C471.959 406.819 470.455 407.192 468.77 407.192ZM468.77 404.504C469.858 404.504 470.828 404.259 471.682 403.768C472.556 403.256 473.239 402.552 473.73 401.656C474.22 400.739 474.466 399.693 474.466 398.52C474.466 397.347 474.22 396.312 473.73 395.416C473.239 394.499 472.556 393.795 471.682 393.304C470.828 392.813 469.858 392.568 468.77 392.568C467.682 392.568 466.7 392.813 465.826 393.304C464.972 393.795 464.29 394.499 463.778 395.416C463.287 396.312 463.042 397.347 463.042 398.52C463.042 399.693 463.287 400.739 463.778 401.656C464.29 402.552 464.972 403.256 465.826 403.768C466.7 404.259 467.682 404.504 468.77 404.504ZM481.402 384.6H485.018L484.41 399.928H481.978L481.402 384.6ZM483.226 407.192C482.629 407.192 482.128 407 481.722 406.616C481.317 406.211 481.114 405.72 481.114 405.144C481.114 404.568 481.317 404.088 481.722 403.704C482.128 403.299 482.629 403.096 483.226 403.096C483.824 403.096 484.314 403.299 484.698 403.704C485.082 404.088 485.274 404.568 485.274 405.144C485.274 405.72 485.072 406.211 484.666 406.616C484.282 407 483.802 407.192 483.226 407.192Z" fill="white"/>
<path d="M383.763 350.88C385.406 350.88 386.878 351.243 388.179 351.968C389.481 352.693 390.494 353.707 391.219 355.008C391.966 356.309 392.339 357.813 392.339 359.52C392.339 361.227 391.966 362.741 391.219 364.064C390.494 365.365 389.481 366.379 388.179 367.104C386.878 367.829 385.406 368.192 383.763 368.192C382.505 368.192 381.353 367.947 380.307 367.456C379.262 366.965 378.398 366.251 377.715 365.312V368H374.771V344.256H377.843V353.6C378.526 352.704 379.379 352.032 380.403 351.584C381.427 351.115 382.547 350.88 383.763 350.88ZM383.507 365.504C384.595 365.504 385.566 365.259 386.419 364.768C387.294 364.256 387.977 363.552 388.467 362.656C388.979 361.739 389.235 360.693 389.235 359.52C389.235 358.347 388.979 357.312 388.467 356.416C387.977 355.499 387.294 354.795 386.419 354.304C385.566 353.813 384.595 353.568 383.507 353.568C382.441 353.568 381.47 353.813 380.595 354.304C379.721 354.795 379.038 355.499 378.547 356.416C378.057 357.312 377.811 358.347 377.811 359.52C377.811 360.693 378.057 361.739 378.547 362.656C379.038 363.552 379.721 364.256 380.595 364.768C381.47 365.259 382.441 365.504 383.507 365.504ZM396.584 351.04H399.656V368H396.584V351.04ZM398.12 347.776C397.523 347.776 397.021 347.584 396.616 347.2C396.232 346.816 396.04 346.347 396.04 345.792C396.04 345.237 396.232 344.768 396.616 344.384C397.021 343.979 397.523 343.776 398.12 343.776C398.717 343.776 399.208 343.968 399.592 344.352C399.997 344.715 400.2 345.173 400.2 345.728C400.2 346.304 399.997 346.795 399.592 347.2C399.208 347.584 398.717 347.776 398.12 347.776ZM412.913 368.192C411.185 368.192 409.639 367.819 408.273 367.072C406.929 366.325 405.873 365.301 405.105 364C404.337 362.677 403.953 361.184 403.953 359.52C403.953 357.856 404.337 356.373 405.105 355.072C405.873 353.749 406.929 352.725 408.273 352C409.639 351.253 411.185 350.88 412.913 350.88C414.449 350.88 415.815 351.189 417.009 351.808C418.225 352.427 419.164 353.323 419.825 354.496L417.489 356C416.956 355.189 416.295 354.581 415.505 354.176C414.716 353.771 413.841 353.568 412.881 353.568C411.772 353.568 410.769 353.813 409.873 354.304C408.999 354.795 408.305 355.499 407.793 356.416C407.303 357.312 407.057 358.347 407.057 359.52C407.057 360.715 407.303 361.771 407.793 362.688C408.305 363.584 408.999 364.277 409.873 364.768C410.769 365.259 411.772 365.504 412.881 365.504C413.841 365.504 414.716 365.301 415.505 364.896C416.295 364.491 416.956 363.883 417.489 363.072L419.825 364.544C419.164 365.717 418.225 366.624 417.009 367.264C415.815 367.883 414.449 368.192 412.913 368.192ZM438.592 351.04L430.368 369.696C429.643 371.424 428.789 372.64 427.808 373.344C426.848 374.048 425.685 374.4 424.32 374.4C423.488 374.4 422.677 374.261 421.888 373.984C421.12 373.728 420.48 373.344 419.968 372.832L421.28 370.528C422.155 371.36 423.168 371.776 424.32 371.776C425.067 371.776 425.685 371.573 426.176 371.168C426.688 370.784 427.147 370.112 427.552 369.152L428.096 367.968L420.608 351.04H423.808L429.728 364.608L435.584 351.04H438.592ZM448.382 368.192C446.654 368.192 445.107 367.819 443.742 367.072C442.398 366.325 441.342 365.301 440.574 364C439.806 362.677 439.422 361.184 439.422 359.52C439.422 357.856 439.806 356.373 440.574 355.072C441.342 353.749 442.398 352.725 443.742 352C445.107 351.253 446.654 350.88 448.382 350.88C449.918 350.88 451.283 351.189 452.478 351.808C453.694 352.427 454.633 353.323 455.294 354.496L452.958 356C452.425 355.189 451.763 354.581 450.974 354.176C450.185 353.771 449.31 353.568 448.35 353.568C447.241 353.568 446.238 353.813 445.342 354.304C444.467 354.795 443.774 355.499 443.262 356.416C442.771 357.312 442.526 358.347 442.526 359.52C442.526 360.715 442.771 361.771 443.262 362.688C443.774 363.584 444.467 364.277 445.342 364.768C446.238 365.259 447.241 365.504 448.35 365.504C449.31 365.504 450.185 365.301 450.974 364.896C451.763 364.491 452.425 363.883 452.958 363.072L455.294 364.544C454.633 365.717 453.694 366.624 452.478 367.264C451.283 367.883 449.918 368.192 448.382 368.192ZM459.053 344.256H462.125V368H459.053V344.256ZM483.318 359.616C483.318 359.851 483.297 360.16 483.254 360.544H469.494C469.686 362.037 470.337 363.243 471.446 364.16C472.577 365.056 473.974 365.504 475.638 365.504C477.665 365.504 479.297 364.821 480.534 363.456L482.23 365.44C481.462 366.336 480.502 367.019 479.35 367.488C478.219 367.957 476.95 368.192 475.542 368.192C473.75 368.192 472.161 367.829 470.774 367.104C469.387 366.357 468.31 365.323 467.542 364C466.795 362.677 466.422 361.184 466.422 359.52C466.422 357.877 466.785 356.395 467.51 355.072C468.257 353.749 469.27 352.725 470.55 352C471.851 351.253 473.313 350.88 474.934 350.88C476.555 350.88 477.995 351.253 479.254 352C480.534 352.725 481.526 353.749 482.23 355.072C482.955 356.395 483.318 357.909 483.318 359.616ZM474.934 353.472C473.462 353.472 472.225 353.92 471.222 354.816C470.241 355.712 469.665 356.885 469.494 358.336H480.374C480.203 356.907 479.617 355.744 478.614 354.848C477.633 353.931 476.406 353.472 474.934 353.472Z" fill="url(#paint2_linear)"/>
</g>
</g>
<defs>
<filter id="filter0_d" x="1226" y="53" width="213" height="87" filterUnits="userSpaceOnUse" color-interpolation-filters="sRGB">
<feFlood flood-opacity="0" result="BackgroundImageFix"/>
<feColorMatrix in="SourceAlpha" type="matrix" values="0 0 0 0 0 0 0 0 0 0 0 0 0 0 0 0 0 0 127 0"/>
<feOffset dy="15"/>
<feGaussianBlur stdDeviation="10"/>
<feColorMatrix type="matrix" values="0 0 0 0 0 0 0 0 0 0 0 0 0 0 0 0 0 0 0.25 0"/>
<feBlend mode="normal" in2="BackgroundImageFix" result="effect1_dropShadow"/>
<feBlend mode="normal" in="SourceGraphic" in2="effect1_dropShadow" result="shape"/>
</filter>
<linearGradient id="paint0_linear" x1="117.128" y1="62.4459" x2="61.0749" y2="103.644" gradientUnits="userSpaceOnUse">
<stop stop-color="#F17013"/>
<stop offset="1" stop-color="#F71E93"/>
</linearGradient>
<linearGradient id="paint1_linear" x1="1419" y1="58" x2="1248.28" y2="112.175" gradientUnits="userSpaceOnUse">
<stop stop-color="#F62982"/>
<stop offset="1" stop-color="#F26C1B"/>
</linearGradient>
<linearGradient id="paint2_linear" x1="391.5" y1="346" x2="391.5" y2="407" gradientUnits="userSpaceOnUse">
<stop stop-color="#F62983"/>
<stop offset="1" stop-color="#F26427"/>
</linearGradient>
<clipPath id="clip0">
<rect width="1536" height="754" fill="white"/>
</clipPath>
</defs>
</svg>
